<mxfile host="app.diagrams.net" modified="2022-05-28T13:09:03.979Z" agent="5.0 (X11; Linux x86_64) AppleWebKit/537.36 (KHTML, like Gecko) Chrome/98.0.4758.87 Safari/537.36" etag="y0UrtgEWOJu-qNsqPiS9" version="17.4.1" type="github">
  <diagram id="X5mTv_tuTz8EmGKZqQgu" name="Page-1">
    <mxGraphModel dx="6648" dy="3248" grid="1" gridSize="10" guides="1" tooltips="1" connect="1" arrows="1" fold="1" page="1" pageScale="1" pageWidth="4681" pageHeight="3300" math="0" shadow="0">
      <root>
        <mxCell id="0" />
        <mxCell id="1" parent="0" />
      </root>
    </mxGraphModel>
  </diagram>
</mxfile>
